<svg viewBox="0 0 133 40" xmlns="http://www.w3.org/2000/svg" data-logo="logo">
          <g transform="translate(0, 0) rotate(0)" id="logogram" style="opacity: 1;"><path fill="#7B19D8" d="M12.446 0L22.7801 8.82887C23.3936 9.35302 23.7473 10.1222 23.7473 10.9323V17.5862L13.4131 8.75734C12.7996 8.23319 12.446 7.464 12.446 6.65386V0Z"></path><path fill="#7B19D8" d="M12.446 40L22.7801 31.1711C23.3936 30.647 23.7473 29.8778 23.7473 29.0677V22.4138L13.4131 31.2427C12.7996 31.7668 12.446 32.536 12.446 33.3461V40Z"></path><path fill="#7B19D8" d="M0.117188 9.31034L10.3108 17.9705C10.805 18.3904 11.4308 18.6207 12.0775 18.6207H20.2982L10.1297 9.96253C9.63514 9.54141 9.00837 9.31034 8.36065 9.31034H0.117188Z"></path><path fill="#7B19D8" d="M0.117188 30.6897L10.2481 22.0345C10.7432 21.6115 11.3713 21.3793 12.0206 21.3793H20.3227L10.1291 30.0394C9.63487 30.4593 9.00904 30.6897 8.36236 30.6897H0.117188Z"></path><path fill="#7B19D8" d="M37.7884 0L27.4542 8.82887C26.8407 9.35302 26.4871 10.1222 26.4871 10.9323V17.5862L36.8212 8.75734C37.4347 8.23319 37.7884 7.464 37.7884 6.65386V0Z"></path><path fill="#7B19D8" d="M37.7884 40L27.4542 31.1711C26.8407 30.647 26.4871 29.8778 26.4871 29.0677V22.4138L36.8212 31.2427C37.4347 31.7668 37.7884 32.536 37.7884 33.3461V40Z"></path><path fill="#7B19D8" d="M50.1172 9.31034L39.9236 17.9705C39.4294 18.3904 38.8035 18.6207 38.1569 18.6207H29.9361L40.1047 9.96253C40.5992 9.54141 41.226 9.31034 41.8737 9.31034H50.1172Z"></path><path fill="#7B19D8" d="M50.1172 30.6897L39.9863 22.0345C39.4912 21.6115 38.863 21.3793 38.2137 21.3793H29.9117L40.1052 30.0394C40.5995 30.4593 41.2253 30.6897 41.872 30.6897H50.1172Z"></path></g>
          <g transform="translate(51, 2.5)" id="logotype" style="opacity: 1;"><path d="M7.64 35L2.31 35L2.31 9.54L8.12 9.54L16.17 22.42Q16.78 23.41 17.41 24.58Q18.05 25.74 18.70 27.16Q19.36 28.57 20.01 30.35L20.01 30.35L19.48 30.35Q19.36 28.93 19.27 27.33Q19.17 25.72 19.11 24.25Q19.04 22.78 19.04 21.76L19.04 21.76L19.04 9.54L24.37 9.54L24.37 35L18.54 35L11.23 23.31Q10.42 21.99 9.74 20.76Q9.06 19.52 8.31 18.01Q7.57 16.51 6.55 14.44L6.55 14.44L7.21 14.44Q7.31 16.29 7.42 17.98Q7.52 19.67 7.58 21.05Q7.64 22.42 7.64 23.29L7.64 23.29L7.64 35ZM31.72 35L26.59 35L26.59 15.89L31.72 15.89L31.72 35ZM29.15 13.40L29.15 13.40Q27.99 13.40 27.17 12.63Q26.35 11.86 26.35 10.77L26.35 10.77Q26.35 9.67 27.17 8.90Q27.99 8.13 29.15 8.13L29.15 8.13Q30.32 8.13 31.14 8.90Q31.97 9.66 31.97 10.77L31.97 10.77Q31.97 11.86 31.14 12.63Q30.32 13.40 29.15 13.40ZM31.95 15.89L43.28 15.89L43.28 19.81L31.95 19.81L31.95 15.89ZM34.59 29.86L34.59 11.35L39.71 11.35L39.71 29.41Q39.71 30.32 40.11 30.75Q40.52 31.19 41.46 31.19L41.46 31.19Q41.75 31.19 42.28 31.11Q42.81 31.04 43.08 30.97L43.08 30.97L43.81 34.81Q42.96 35.07 42.11 35.17Q41.27 35.27 40.50 35.27L40.50 35.27Q37.63 35.27 36.11 33.87Q34.59 32.47 34.59 29.86L34.59 29.86ZM52.89 35.38L52.89 35.38Q50.02 35.38 47.91 34.14Q45.81 32.90 44.68 30.68Q43.54 28.47 43.54 25.53L43.54 25.53Q43.54 22.56 44.68 20.35Q45.81 18.13 47.91 16.89Q50.02 15.65 52.89 15.65L52.89 15.65Q55.78 15.65 57.87 16.89Q59.96 18.13 61.10 20.35Q62.24 22.56 62.24 25.53L62.24 25.53Q62.24 28.47 61.10 30.68Q59.96 32.90 57.87 34.14Q55.78 35.38 52.89 35.38ZM52.89 31.34L52.89 31.34Q54.25 31.34 55.18 30.58Q56.10 29.82 56.56 28.50Q57.02 27.17 57.02 25.52L57.02 25.52Q57.02 23.82 56.56 22.51Q56.10 21.19 55.18 20.44Q54.25 19.69 52.89 19.69L52.89 19.69Q51.52 19.69 50.61 20.44Q49.69 21.19 49.23 22.51Q48.77 23.82 48.77 25.52L48.77 25.52Q48.77 27.17 49.23 28.50Q49.69 29.82 50.61 30.58Q51.52 31.34 52.89 31.34ZM72.08 35.38L72.08 35.38Q69.21 35.38 67.10 34.14Q65.00 32.90 63.87 30.68Q62.73 28.47 62.73 25.53L62.73 25.53Q62.73 22.56 63.87 20.35Q65.00 18.13 67.10 16.89Q69.21 15.65 72.08 15.65L72.08 15.65Q74.96 15.65 77.06 16.89Q79.15 18.13 80.29 20.35Q81.42 22.56 81.42 25.53L81.42 25.53Q81.42 28.47 80.29 30.68Q79.15 32.90 77.06 34.14Q74.96 35.38 72.08 35.38ZM72.08 31.34L72.08 31.34Q73.44 31.34 74.37 30.58Q75.29 29.82 75.75 28.50Q76.21 27.17 76.21 25.52L76.21 25.52Q76.21 23.82 75.75 22.51Q75.29 21.19 74.37 20.44Q73.44 19.69 72.08 19.69L72.08 19.69Q70.71 19.69 69.80 20.44Q68.88 21.19 68.42 22.51Q67.96 23.82 67.96 25.52L67.96 25.52Q67.96 27.17 68.42 28.50Q68.88 29.82 69.80 30.58Q70.71 31.34 72.08 31.34Z" fill="#38363a"></path></g>
          
        </svg>